<svg width="145" height="73" viewBox="0 0 145 73" fill="none" xmlns="http://www.w3.org/2000/svg">
<path d="M29.0355 47.9176C28.9716 48.0327 28.8693 48.2245 28.7287 48.4929C28.5881 48.7486 28.4283 49.0362 28.2493 49.3559C28.0575 49.7138 27.8786 50.0398 27.7124 50.3338C27.5589 50.6279 27.4503 50.8324 27.3864 50.9475C27.3864 50.9475 27.1754 50.9539 26.7536 50.9666C26.3317 50.9922 25.8139 50.9922 25.2003 50.9666C24.5994 50.9411 24.0114 50.8772 23.4361 50.7749C22.8608 50.6598 22.407 50.4745 22.0746 50.2188C21.4865 49.6946 21.1349 49.0362 21.0199 48.2436C20.9176 47.4382 20.892 46.6328 20.9432 45.8274C20.956 45.5206 20.9624 45.233 20.9624 44.9645C20.1825 46.5497 19.0639 47.8409 17.6065 48.8381C16.1491 49.8225 14.5511 50.4489 12.8125 50.7174C11.2273 50.973 9.64205 50.9283 8.05682 50.5831C6.48438 50.238 5.07173 49.5476 3.81889 48.5121C2.5277 47.3871 1.65838 46.0192 1.21094 44.4084C0.776278 42.7848 0.897727 41.174 1.57528 39.576C2.34233 38.0164 3.46733 36.7891 4.95028 35.8942C6.43324 34.9993 7.97372 34.2898 9.57173 33.7657C11.3359 33.1392 13.1001 32.5192 14.8643 31.9056C16.897 31.2024 18.9233 30.4929 20.9432 29.777C20.9432 28.1279 20.9432 26.4851 20.9432 24.8487C20.9432 24.5164 20.9496 24.1776 20.9624 23.8324C21.0263 22.9375 20.9943 22.0618 20.8665 21.2053C20.6364 20.157 20.1442 19.4411 19.3899 19.0576C18.6357 18.6612 17.7727 18.4375 16.8011 18.3864C15.2287 18.2458 13.6243 18.3992 11.9879 18.8466C10.3643 19.2813 9.00923 20.1059 7.92259 21.3203C7.79474 21.0519 7.6669 20.7898 7.53906 20.5341C7.06605 19.5881 6.59943 18.6421 6.1392 17.696L6.10085 17.6002C6.8679 17.549 7.64134 17.4915 8.42116 17.4276C10.5433 17.223 12.6783 17.1463 14.826 17.1975C16.9737 17.2486 19.0192 17.696 20.9624 18.5398C22.7266 19.3324 24.1392 20.4958 25.2003 22.0299C26.2614 23.5512 26.8239 25.2834 26.8878 27.2266C26.9134 28.8502 26.9197 31.1193 26.907 34.0341C26.907 36.9489 26.9006 39.5249 26.8878 41.7621C26.8878 43.0789 26.8878 43.9546 26.8878 44.3892C26.8878 44.4659 26.8878 44.5362 26.8878 44.6002C26.875 45.1499 26.9006 45.7188 26.9645 46.3068C27.0284 46.8821 27.2138 47.3424 27.5206 47.6875C27.8274 48.0327 28.3324 48.1094 29.0355 47.9176ZM20.6747 43.8139C20.7642 43.5966 20.8537 43.3793 20.9432 43.162V30.5824C20.419 30.7614 19.8949 30.9468 19.3707 31.1385C18.2202 31.5476 17.0696 31.9567 15.919 32.3658C15.4332 32.532 14.9411 32.6918 14.4425 32.8452C13.4197 33.1264 12.4354 33.4908 11.4893 33.9382C10.3899 34.5391 9.50142 35.4276 8.82386 36.6037C8.15909 37.7799 7.75639 38.9752 7.61577 40.1897C7.39844 42.6186 7.99929 44.8239 9.41832 46.8054C10.1214 47.7642 10.978 48.5505 11.9879 49.1641C12.5888 49.4965 13.2088 49.6435 13.848 49.6051C14.4872 49.554 15.1072 49.3878 15.7081 49.1066C16.8714 48.5824 17.8622 47.8601 18.6804 46.9397C19.4986 46.0064 20.1634 44.9645 20.6747 43.8139ZM38.9496 50.9283H29.3232C29.7578 50.9283 30.103 50.6726 30.3587 50.1612C30.6143 49.6371 30.7997 48.9979 30.9148 48.2436C31.0426 47.4766 31.1257 46.7095 31.1641 45.9425V11.6556C31.1641 10.7095 31.1385 9.89136 31.0874 9.20102C31.049 8.4979 30.9915 7.90344 30.9148 7.41764C30.8381 6.91906 30.7486 6.50997 30.6463 6.19037C30.544 5.85798 30.4418 5.6023 30.3395 5.42332C30.2372 5.23156 30.1349 5.09094 30.0327 5.00145C29.9432 4.91196 29.8537 4.86082 29.7642 4.84804C29.6875 4.82247 29.6172 4.81608 29.5533 4.82886C29.5021 4.84165 29.4702 4.84804 29.4574 4.84804L37.0895 0.648464V45.2905C37.1023 46.0831 37.1662 46.9141 37.2812 47.7834C37.3963 48.6399 37.5817 49.3814 37.8374 50.0078C38.1058 50.6215 38.4766 50.9283 38.9496 50.9283ZM48.8828 50.9283H39.2564C39.6911 50.9283 40.0362 50.6726 40.2919 50.1612C40.5476 49.6371 40.733 48.9979 40.848 48.2436C40.9759 47.4766 41.0589 46.7095 41.0973 45.9425V11.6556C41.0973 10.7095 41.0717 9.89136 41.0206 9.20102C40.9822 8.4979 40.9247 7.90344 40.848 7.41764C40.7713 6.91906 40.6818 6.50997 40.5795 6.19037C40.4773 5.85798 40.375 5.6023 40.2727 5.42332C40.1705 5.23156 40.0682 5.09094 39.9659 5.00145C39.8764 4.91196 39.7869 4.86082 39.6974 4.84804C39.6207 4.82247 39.5504 4.81608 39.4865 4.82886C39.4354 4.84165 39.4034 4.84804 39.3906 4.84804L47.0227 0.648464V45.2905C47.0355 46.0831 47.0994 46.9141 47.2145 47.7834C47.3295 48.6399 47.5149 49.3814 47.7706 50.0078C48.0391 50.6215 48.4098 50.9283 48.8828 50.9283ZM80.2741 47.4382C80.5426 47.988 81.1243 48.1414 82.0192 47.8985C81.968 48.0135 81.8658 48.2053 81.7124 48.4737C81.5589 48.7422 81.3928 49.0426 81.2138 49.375C81.0348 49.7202 80.8622 50.0398 80.696 50.3338C80.5426 50.6151 80.4339 50.8132 80.37 50.9283C80.37 50.9283 80.2294 50.9283 79.9482 50.9283C79.6797 50.9411 79.3409 50.9475 78.9318 50.9475C78.5227 50.9603 78.1136 50.9603 77.7045 50.9475C77.3082 50.9475 76.9759 50.9219 76.7074 50.8708C75.5313 50.7046 74.7131 50.0845 74.2528 49.0107C74.0099 48.2053 73.9141 47.3743 73.9652 46.5178C73.9652 46.4155 73.9652 46.3196 73.9652 46.2301C71.8686 47.9943 69.5099 49.3047 66.8892 50.1612C65.304 50.711 63.6293 51.0817 61.8651 51.2735C60.1136 51.478 58.4197 51.3693 56.7834 50.9475C54.9808 50.4233 53.5874 49.4645 52.603 48.0711C51.6314 46.6776 51.0625 45.0732 50.8963 43.2578C50.7813 41.5192 50.7557 39.7614 50.8196 37.9844C50.8452 37.1918 50.858 36.412 50.858 35.6449C50.858 32.7174 50.858 29.7898 50.858 26.8622C50.858 26.7472 50.8388 26.3764 50.8004 25.75C50.7621 25.1108 50.6854 24.4269 50.5703 23.6982C50.4553 22.9695 50.2891 22.375 50.0717 21.9148C49.8544 21.4418 49.5604 21.282 49.1896 21.4354C50.9794 20.451 52.7628 19.4603 54.5398 18.4631C55.294 18.0412 56.0483 17.6257 56.8026 17.2166C56.8026 19.3644 56.8026 21.5185 56.8026 23.679C56.8026 25.9162 56.8026 28.1534 56.8026 30.3907C56.8026 32.6151 56.8026 34.8459 56.8026 37.0831C56.8026 39.3076 56.8026 41.5384 56.8026 43.7756C56.8026 43.9546 56.8026 44.1336 56.8026 44.3125C56.7898 44.76 56.7962 45.2074 56.8217 45.6549C56.924 46.7415 57.2692 47.6875 57.8572 48.4929C58.4581 49.2855 59.2955 49.8289 60.3693 50.1229C61.3409 50.353 62.3189 50.3978 63.3033 50.2571C64.3004 50.1165 65.2656 49.8864 66.1989 49.5668C69.0753 48.6719 71.6513 47.2337 73.9268 45.2522C73.9268 44.8175 73.9268 43.5519 73.9268 41.4553C73.9268 39.3459 73.9268 37.0703 73.9268 34.6286C73.9268 32.1868 73.9268 30.1478 73.9268 28.5114C73.9268 28.2046 73.9077 27.6421 73.8693 26.8239C73.8438 25.9929 73.7734 25.13 73.6584 24.2351C73.5561 23.3402 73.3899 22.6115 73.1598 22.049C72.9297 21.4865 72.6229 21.282 72.2393 21.4354C74.1442 20.3871 76.049 19.3324 77.9538 18.2713C78.593 17.9262 79.2259 17.5746 79.8523 17.2166C79.8523 17.6385 79.8523 18.885 79.8523 20.956C79.8651 23.027 79.8714 25.4176 79.8714 28.1279C79.8714 30.8253 79.8714 33.4269 79.8714 35.9326C79.8714 38.0036 79.8714 39.7358 79.8714 41.1293C79.8714 42.5228 79.8714 43.2706 79.8714 43.3729C79.8714 43.6286 79.8651 43.9034 79.8523 44.1975C79.8267 44.76 79.8267 45.3289 79.8523 45.9041C79.8906 46.4794 80.0313 46.9908 80.2741 47.4382ZM99.0092 18.5973C100.582 17.8686 102.18 17.5107 103.803 17.5235L102.039 22.6627C102.039 22.6627 101.739 22.6051 101.138 22.4901C100.55 22.375 99.8018 22.3111 98.8942 22.2983C97.9865 22.2728 97.0405 22.407 96.0561 22.701C95.0845 22.9823 94.1896 23.5064 93.3714 24.2735C92.5661 25.3473 92.0099 26.1591 91.7031 26.7088C91.7031 26.7088 91.6967 26.7152 91.6839 26.728C91.6456 26.8175 91.5305 27.0412 91.3388 27.3992C91.147 27.7443 90.9361 28.1343 90.706 28.5689C90.4759 29.0036 90.2713 29.3871 90.0923 29.7195V45.2905C90.1179 46.0831 90.1818 46.9141 90.2841 47.7834C90.3991 48.6399 90.5845 49.3814 90.8402 50.0078C91.1087 50.6215 91.4858 50.9283 91.9716 50.9283H82.326C82.7607 50.9283 83.1058 50.6726 83.3615 50.1612C83.6172 49.6371 83.8089 48.9979 83.9368 48.2436C84.0646 47.4766 84.1413 46.7095 84.1669 45.9425V28.2813C84.1669 27.348 84.1413 26.5362 84.0902 25.8459C84.0518 25.1428 83.9943 24.5483 83.9176 24.0625C83.8409 23.5639 83.7514 23.1549 83.6491 22.8353C83.5597 22.5029 83.4638 22.2472 83.3615 22.0682C83.2592 21.8764 83.157 21.7358 83.0547 21.6463C82.9524 21.5568 82.8565 21.5057 82.767 21.4929C82.6903 21.4674 82.6264 21.461 82.5753 21.4737C82.5241 21.4737 82.4922 21.4801 82.4794 21.4929L84.1669 20.5533L90.0923 17.2742V28.0703C90.3608 27.5845 90.5909 27.1627 90.7827 26.8047C90.821 26.728 90.8658 26.6449 90.9169 26.5554C90.968 26.4659 91.0128 26.3892 91.0511 26.3253C91.0895 26.2614 91.1087 26.223 91.1087 26.2103C91.3643 25.7756 91.7479 25.1939 92.2592 24.4652C92.7834 23.7365 93.4354 22.9631 94.2152 22.1449C95.7237 20.5725 97.3217 19.3899 99.0092 18.5973ZM129.135 39.4418C129.135 39.4418 129.256 39.4418 129.499 39.4418C129.742 39.4418 130.036 39.4418 130.381 39.4418C130.739 39.4418 131.078 39.4418 131.398 39.4418C131.717 39.4418 131.96 39.4418 132.126 39.4418C131.513 41.4233 130.586 43.2387 129.346 44.8878C128.106 46.537 126.597 47.9049 124.82 48.9915C121.675 50.8068 118.39 51.4461 114.964 50.9091C111.55 50.3722 108.585 48.7997 106.066 46.1918C103.65 43.5455 102.161 40.4773 101.598 36.9872C101.036 33.4972 101.445 30.1094 102.825 26.8239C102.825 26.8111 102.825 26.8047 102.825 26.8047C104.206 23.5064 106.398 20.8921 109.403 18.9617C110.898 18.0412 112.516 17.3956 114.254 17.0249C115.213 16.8459 116.165 16.7628 117.112 16.7756C118.07 16.7884 119.029 16.8587 119.988 16.9865V17.0057C123.107 17.6577 125.76 19.1023 127.946 21.3395C130.132 23.5767 131.641 26.2039 132.472 29.2209C132.139 29.2209 130.842 29.2209 128.579 29.2209C126.316 29.2209 123.708 29.2209 120.755 29.2209C117.815 29.2209 115.098 29.2209 112.605 29.2209C110.125 29.2209 108.399 29.2209 107.428 29.2209C107.415 31.7394 107.786 34.2003 108.54 36.6037C108.54 36.6037 108.546 36.6293 108.559 36.6804C108.572 36.7316 108.591 36.7955 108.616 36.8722C108.642 36.9361 108.668 37.0064 108.693 37.0831C108.719 37.1598 108.738 37.2237 108.751 37.2749C108.763 37.3132 108.77 37.3324 108.77 37.3324C109.371 39.1094 110.163 40.8033 111.148 42.4141C112.145 44.0249 113.359 45.4439 114.791 46.6712C115.942 47.6684 117.259 48.4162 118.741 48.9148C120.224 49.4134 121.72 49.407 123.229 48.8956C123.382 48.8317 123.542 48.7678 123.708 48.7039C124.168 48.4737 124.609 48.2181 125.031 47.9368C127.32 46.1343 128.687 43.3026 129.135 39.4418ZM107.466 28.4539H128.732C127.991 25.8076 126.719 23.4489 124.916 21.3779C124.136 20.483 123.248 19.7095 122.251 19.0576C121.254 18.4056 120.167 17.9645 118.991 17.7344C116.651 17.3253 114.408 17.613 112.26 18.5973C111.097 19.211 110.17 20.0611 109.479 21.1478C108.802 22.2216 108.303 23.4041 107.984 24.6953C107.677 25.9737 107.504 27.2266 107.466 28.4539Z" fill="black"/>
<path d="M1.86107 55.2908H2.63383V56.3671C2.94293 55.955 3.28515 55.6477 3.66049 55.4453C4.03582 55.2392 4.44428 55.1362 4.88586 55.1362C5.33479 55.1362 5.73221 55.2503 6.07811 55.4784C6.42769 55.7066 6.68527 56.0138 6.85086 56.4002C7.01645 56.7866 7.09925 57.3882 7.09925 58.2052V61.2962H6.33201V58.4315C6.33201 57.7397 6.30257 57.2778 6.2437 57.046C6.1517 56.6486 5.97875 56.3505 5.72485 56.1518C5.47094 55.9494 5.13976 55.8482 4.7313 55.8482C4.26397 55.8482 3.84448 56.0028 3.47282 56.3119C3.10484 56.621 2.86197 57.0037 2.74422 57.46C2.67062 57.7581 2.63383 58.3027 2.63383 59.0938V61.2962H1.86107V55.2908ZM14.2353 55.2908V61.2962H13.4736V60.264C13.1498 60.6577 12.7855 60.954 12.3807 61.1527C11.9796 61.3514 11.5399 61.4507 11.0615 61.4507C10.2115 61.4507 9.48471 61.1435 8.88122 60.5289C8.28142 59.9107 7.98151 59.1601 7.98151 58.2769C7.98151 57.4122 8.2851 56.6725 8.89226 56.058C9.49943 55.4435 10.2299 55.1362 11.0836 55.1362C11.5767 55.1362 12.0219 55.2411 12.4193 55.4508C12.8204 55.6606 13.1719 55.9752 13.4736 56.3947V55.2908H14.2353ZM11.1443 55.8814C10.7138 55.8814 10.3163 55.9881 9.95204 56.2015C9.58774 56.4113 9.29704 56.7075 9.07993 57.0902C8.8665 57.4729 8.75979 57.8777 8.75979 58.3045C8.75979 58.7277 8.86834 59.1325 9.08545 59.5188C9.30256 59.9052 9.59326 60.207 9.95756 60.4241C10.3255 60.6375 10.7193 60.7442 11.1388 60.7442C11.5619 60.7442 11.963 60.6375 12.3421 60.4241C12.7211 60.2106 13.0118 59.9218 13.2142 59.5575C13.4202 59.1932 13.5233 58.7829 13.5233 58.3266C13.5233 57.6311 13.2933 57.0497 12.8333 56.5824C12.377 56.115 11.814 55.8814 11.1443 55.8814ZM15.7413 52.8179C15.9179 52.8179 16.0688 52.8805 16.1939 53.0056C16.319 53.1307 16.3816 53.2816 16.3816 53.4582C16.3816 53.6312 16.319 53.7802 16.1939 53.9053C16.0688 54.0304 15.9179 54.093 15.7413 54.093C15.5684 54.093 15.4193 54.0304 15.2942 53.9053C15.1691 53.7802 15.1065 53.6312 15.1065 53.4582C15.1065 53.2816 15.1691 53.1307 15.2942 53.0056C15.4193 52.8805 15.5684 52.8179 15.7413 52.8179ZM15.3549 55.2908H16.1332V61.2962H15.3549V55.2908ZM17.1093 52.9725H17.8821V61.2962H17.1093V52.9725ZM24.6253 55.9476L24.1286 56.4609C23.7164 56.0598 23.3135 55.8593 22.9198 55.8593C22.6695 55.8593 22.4543 55.9421 22.274 56.1077C22.0973 56.2733 22.009 56.4665 22.009 56.6872C22.009 56.8823 22.0826 57.0681 22.2298 57.2447C22.377 57.425 22.6861 57.6366 23.1571 57.8795C23.7312 58.1776 24.1212 58.4646 24.3273 58.7406C24.5297 59.0202 24.6309 59.3348 24.6309 59.6844C24.6309 60.1775 24.4579 60.5952 24.112 60.9374C23.7661 61.2796 23.3337 61.4507 22.8149 61.4507C22.469 61.4507 22.1378 61.3753 21.8213 61.2244C21.5086 61.0735 21.2491 60.8656 21.0431 60.6007L21.5288 60.0487C21.9225 60.494 22.3402 60.7166 22.7818 60.7166C23.0909 60.7166 23.354 60.6173 23.5711 60.4185C23.7882 60.2198 23.8967 59.9862 23.8967 59.7175C23.8967 59.4968 23.825 59.2999 23.6815 59.1269C23.538 58.9577 23.2141 58.7442 22.71 58.4867C22.1691 58.207 21.8011 57.931 21.6061 57.6587C21.411 57.3864 21.3135 57.0755 21.3135 56.7259C21.3135 56.2696 21.4681 55.8906 21.7772 55.5888C22.09 55.2871 22.4837 55.1362 22.9584 55.1362C23.5104 55.1362 24.066 55.4067 24.6253 55.9476ZM31.4744 55.2908V61.2962H30.7127V60.264C30.3888 60.6577 30.0245 60.954 29.6198 61.1527C29.2187 61.3514 28.7789 61.4507 28.3006 61.4507C27.4505 61.4507 26.7238 61.1435 26.1203 60.5289C25.5205 59.9107 25.2206 59.1601 25.2206 58.2769C25.2206 57.4122 25.5242 56.6725 26.1313 56.058C26.7385 55.4435 27.4689 55.1362 28.3226 55.1362C28.8157 55.1362 29.261 55.2411 29.6584 55.4508C30.0595 55.6606 30.4109 55.9752 30.7127 56.3947V55.2908H31.4744ZM28.3834 55.8814C27.9528 55.8814 27.5554 55.9881 27.1911 56.2015C26.8268 56.4113 26.5361 56.7075 26.319 57.0902C26.1056 57.4729 25.9989 57.8777 25.9989 58.3045C25.9989 58.7277 26.1074 59.1325 26.3245 59.5188C26.5416 59.9052 26.8323 60.207 27.1966 60.4241C27.5646 60.6375 27.9583 60.7442 28.3778 60.7442C28.801 60.7442 29.2021 60.6375 29.5811 60.4241C29.9602 60.2106 30.2509 59.9218 30.4532 59.5575C30.6593 59.1932 30.7623 58.7829 30.7623 58.3266C30.7623 57.6311 30.5324 57.0497 30.0724 56.5824C29.6161 56.115 29.0531 55.8814 28.3834 55.8814ZM32.594 52.9725H33.3668V61.2962H32.594V52.9725ZM37.3069 55.1362C38.2305 55.1362 38.9959 55.4711 39.6031 56.1408C40.1551 56.7516 40.4311 57.4747 40.4311 58.31C40.4311 59.149 40.1385 59.8831 39.5534 60.5124C38.972 61.1379 38.2232 61.4507 37.3069 61.4507C36.387 61.4507 35.6345 61.1379 35.0494 60.5124C34.468 59.8831 34.1773 59.149 34.1773 58.31C34.1773 57.4784 34.4532 56.7572 35.0052 56.1463C35.6124 55.4729 36.3796 55.1362 37.3069 55.1362ZM37.3069 55.8924C36.6666 55.8924 36.1165 56.1298 35.6565 56.6044C35.1966 57.0791 34.9666 57.6532 34.9666 58.3266C34.9666 58.7608 35.0714 59.1656 35.2812 59.5409C35.4909 59.9163 35.7743 60.207 36.1312 60.413C36.4882 60.6154 36.8801 60.7166 37.3069 60.7166C37.7338 60.7166 38.1257 60.6154 38.4826 60.413C38.8396 60.207 39.1229 59.9163 39.3326 59.5409C39.5424 59.1656 39.6473 58.7608 39.6473 58.3266C39.6473 57.6532 39.4154 57.0791 38.9518 56.6044C38.4918 56.1298 37.9435 55.8924 37.3069 55.8924ZM41.363 55.2908H42.1358V56.3671C42.4449 55.955 42.7871 55.6477 43.1624 55.4453C43.5378 55.2392 43.9462 55.1362 44.3878 55.1362C44.8367 55.1362 45.2341 55.2503 45.58 55.4784C45.9296 55.7066 46.1872 56.0138 46.3528 56.4002C46.5184 56.7866 46.6012 57.3882 46.6012 58.2052V61.2962H45.8339V58.4315C45.8339 57.7397 45.8045 57.2778 45.7456 57.046C45.6536 56.6486 45.4807 56.3505 45.2268 56.1518C44.9729 55.9494 44.6417 55.8482 44.2332 55.8482C43.7659 55.8482 43.3464 56.0028 42.9748 56.3119C42.6068 56.621 42.3639 57.0037 42.2462 57.46C42.1726 57.7581 42.1358 58.3027 42.1358 59.0938V61.2962H41.363V55.2908ZM56.6508 58.2935L57.2027 58.8786C56.8495 59.1913 56.5312 59.4618 56.2478 59.6899C56.4355 59.8887 56.706 60.1665 57.0592 60.5234C57.3389 60.8031 57.5799 61.0607 57.7823 61.2962H56.6508L55.6075 60.2088C54.9084 60.7387 54.3472 61.0864 53.924 61.252C53.5009 61.4176 53.0538 61.5004 52.5827 61.5004C51.9572 61.5004 51.4549 61.3219 51.0759 60.965C50.6969 60.6044 50.5073 60.1554 50.5073 59.6182C50.5073 59.2134 50.6343 58.8086 50.8882 58.4039C51.1458 57.9954 51.6683 57.4802 52.4558 56.8583C52.0105 56.3211 51.7235 55.9255 51.5947 55.6716C51.4696 55.414 51.4071 55.1693 51.4071 54.9375C51.4071 54.5327 51.5634 54.1979 51.8762 53.9329C52.2368 53.6238 52.6858 53.4693 53.223 53.4693C53.5616 53.4693 53.8707 53.5373 54.1503 53.6735C54.43 53.8096 54.6434 53.9936 54.7906 54.2255C54.9378 54.4536 55.0114 54.6965 55.0114 54.9541C55.0114 55.2264 54.9157 55.5171 54.7244 55.8262C54.533 56.1316 54.1559 56.5235 53.5929 57.0019L54.8237 58.2935L55.6683 59.138C56.073 58.7994 56.4005 58.5179 56.6508 58.2935ZM53.0906 56.3947C53.4843 56.0893 53.7805 55.7894 53.9792 55.495C54.1191 55.2852 54.189 55.0994 54.189 54.9375C54.189 54.7498 54.097 54.5879 53.913 54.4518C53.7327 54.3156 53.4917 54.2475 53.1899 54.2475C52.9029 54.2475 52.6692 54.3175 52.4889 54.4573C52.3086 54.5971 52.2184 54.7627 52.2184 54.9541C52.2184 55.1013 52.2552 55.2392 52.3288 55.368C52.5092 55.6808 52.7631 56.023 53.0906 56.3947ZM52.9912 57.471C52.3031 57.9899 51.8523 58.4039 51.6389 58.713C51.4255 59.0184 51.3187 59.3017 51.3187 59.563C51.3187 59.8721 51.4494 60.1462 51.7106 60.3854C51.9719 60.6209 52.292 60.7387 52.6711 60.7387C52.9581 60.7387 53.2396 60.6798 53.5156 60.5621C53.9498 60.3744 54.4631 60.069 55.0556 59.6458L53.7308 58.2879C53.5101 58.0561 53.2635 57.7838 52.9912 57.471ZM66.8825 56.5382L66.2698 56.9191C65.7399 56.2162 65.0168 55.8648 64.1006 55.8648C63.3683 55.8648 62.7593 56.1003 62.2735 56.5713C61.7915 57.0423 61.5505 57.6145 61.5505 58.2879C61.5505 58.7258 61.6609 59.138 61.8816 59.5244C62.1061 59.9107 62.4115 60.2106 62.7979 60.4241C63.188 60.6375 63.624 60.7442 64.1061 60.7442C64.9892 60.7442 65.7105 60.3928 66.2698 59.6899L66.8825 60.0929C66.5955 60.5234 66.2091 60.8583 65.7233 61.0975C65.2413 61.333 64.6912 61.4507 64.073 61.4507C63.1236 61.4507 62.3361 61.149 61.7105 60.5455C61.085 59.942 60.7722 59.2079 60.7722 58.3431C60.7722 57.7617 60.9175 57.2226 61.2082 56.7259C61.5026 56.2254 61.9056 55.8354 62.4171 55.5557C62.9285 55.276 63.5008 55.1362 64.1337 55.1362C64.5311 55.1362 64.9138 55.1969 65.2818 55.3184C65.6534 55.4398 65.968 55.598 66.2256 55.7931C66.4832 55.9881 66.7022 56.2365 66.8825 56.5382ZM67.8641 52.9725H68.6369V56.3671C68.9496 55.955 69.2937 55.6477 69.669 55.4453C70.0444 55.2392 70.451 55.1362 70.8889 55.1362C71.3378 55.1362 71.7352 55.2503 72.0811 55.4784C72.4307 55.7066 72.6883 56.0138 72.8539 56.4002C73.0195 56.7829 73.1023 57.3846 73.1023 58.2052V61.2962H72.3295V58.4315C72.3295 57.7397 72.3019 57.2778 72.2467 57.046C72.1511 56.6486 71.9763 56.3505 71.7224 56.1518C71.4721 55.9494 71.1428 55.8482 70.7343 55.8482C70.267 55.8482 69.8475 56.0028 69.4758 56.3119C69.1079 56.621 68.865 57.0037 68.7472 57.46C68.6737 57.7544 68.6369 58.299 68.6369 59.0938V61.2962H67.8641V52.9725ZM74.5255 52.8179C74.7021 52.8179 74.853 52.8805 74.9781 53.0056C75.1032 53.1307 75.1658 53.2816 75.1658 53.4582C75.1658 53.6312 75.1032 53.7802 74.9781 53.9053C74.853 54.0304 74.7021 54.093 74.5255 54.093C74.3525 54.093 74.2035 54.0304 74.0784 53.9053C73.9533 53.7802 73.8907 53.6312 73.8907 53.4582C73.8907 53.2816 73.9533 53.1307 74.0784 53.0056C74.2035 52.8805 74.3525 52.8179 74.5255 52.8179ZM74.1391 55.2908H74.9174V61.2962H74.1391V55.2908ZM75.8935 52.9725H76.6662V61.2962H75.8935V52.9725ZM77.6478 52.9725H78.4206V61.2962H77.6478V52.9725ZM85.1639 55.9476L84.6671 56.4609C84.255 56.0598 83.852 55.8593 83.4583 55.8593C83.2081 55.8593 82.9928 55.9421 82.8125 56.1077C82.6359 56.2733 82.5476 56.4665 82.5476 56.6872C82.5476 56.8823 82.6211 57.0681 82.7683 57.2447C82.9155 57.425 83.2246 57.6366 83.6956 57.8795C84.2697 58.1776 84.6598 58.4646 84.8658 58.7406C85.0682 59.0202 85.1694 59.3348 85.1694 59.6844C85.1694 60.1775 84.9965 60.5952 84.6506 60.9374C84.3047 61.2796 83.8723 61.4507 83.3534 61.4507C83.0075 61.4507 82.6763 61.3753 82.3599 61.2244C82.0471 61.0735 81.7877 60.8656 81.5816 60.6007L82.0673 60.0487C82.4611 60.494 82.8787 60.7166 83.3203 60.7166C83.6294 60.7166 83.8925 60.6173 84.1096 60.4185C84.3267 60.2198 84.4353 59.9862 84.4353 59.7175C84.4353 59.4968 84.3635 59.2999 84.22 59.1269C84.0765 58.9577 83.7527 58.7442 83.2486 58.4867C82.7076 58.207 82.3396 57.931 82.1446 57.6587C81.9496 57.3864 81.8521 57.0755 81.8521 56.7259C81.8521 56.2696 82.0066 55.8906 82.3157 55.5888C82.6285 55.2871 83.0222 55.1362 83.4969 55.1362C84.0489 55.1362 84.6046 55.4067 85.1639 55.9476ZM86.0406 55.2908H86.8079V56.3947C87.1133 55.9752 87.4647 55.6606 87.8621 55.4508C88.2595 55.2411 88.703 55.1362 89.1924 55.1362C90.0461 55.1362 90.7765 55.4435 91.3837 56.058C91.9908 56.6725 92.2944 57.4122 92.2944 58.2769C92.2944 59.1601 91.9927 59.9107 91.3892 60.5289C90.7894 61.1435 90.0645 61.4507 89.2144 61.4507C88.7361 61.4507 88.2963 61.3514 87.8952 61.1527C87.4941 60.954 87.1317 60.6577 86.8079 60.264V63.493H86.0406V55.2908ZM89.1316 55.8814C88.4619 55.8814 87.8971 56.115 87.4371 56.5824C86.9808 57.0497 86.7527 57.6311 86.7527 58.3266C86.7527 58.7829 86.8539 59.1932 87.0562 59.5575C87.2623 59.9218 87.5549 60.2106 87.9339 60.4241C88.3166 60.6375 88.7195 60.7442 89.1427 60.7442C89.5585 60.7442 89.9486 60.6375 90.3129 60.4241C90.6808 60.207 90.9734 59.9052 91.1905 59.5188C91.4076 59.1325 91.5162 58.7277 91.5162 58.3045C91.5162 57.8777 91.4076 57.4729 91.1905 57.0902C90.9771 56.7075 90.6882 56.4113 90.3239 56.2015C89.9596 55.9881 89.5622 55.8814 89.1316 55.8814ZM99.2207 55.2908V61.2962H98.459V60.264C98.1352 60.6577 97.7709 60.954 97.3661 61.1527C96.965 61.3514 96.5253 61.4507 96.0469 61.4507C95.1969 61.4507 94.4701 61.1435 93.8667 60.5289C93.2669 59.9107 92.9669 59.1601 92.9669 58.2769C92.9669 57.4122 93.2705 56.6725 93.8777 56.058C94.4849 55.4435 95.2153 55.1362 96.069 55.1362C96.5621 55.1362 97.0074 55.2411 97.4048 55.4508C97.8059 55.6606 98.1573 55.9752 98.459 56.3947V55.2908H99.2207ZM96.1297 55.8814C95.6992 55.8814 95.3018 55.9881 94.9375 56.2015C94.5732 56.4113 94.2825 56.7075 94.0654 57.0902C93.8519 57.4729 93.7452 57.8777 93.7452 58.3045C93.7452 58.7277 93.8538 59.1325 94.0709 59.5188C94.288 59.9052 94.5787 60.207 94.943 60.4241C95.311 60.6375 95.7047 60.7442 96.1242 60.7442C96.5474 60.7442 96.9485 60.6375 97.3275 60.4241C97.7065 60.2106 97.9972 59.9218 98.1996 59.5575C98.4057 59.1932 98.5087 58.7829 98.5087 58.3266C98.5087 57.6311 98.2787 57.0497 97.8187 56.5824C97.3625 56.115 96.7994 55.8814 96.1297 55.8814ZM106.285 56.5382L105.672 56.9191C105.142 56.2162 104.419 55.8648 103.503 55.8648C102.771 55.8648 102.162 56.1003 101.676 56.5713C101.194 57.0423 100.953 57.6145 100.953 58.2879C100.953 58.7258 101.063 59.138 101.284 59.5244C101.509 59.9107 101.814 60.2106 102.2 60.4241C102.591 60.6375 103.027 60.7442 103.509 60.7442C104.392 60.7442 105.113 60.3928 105.672 59.6899L106.285 60.0929C105.998 60.5234 105.612 60.8583 105.126 61.0975C104.644 61.333 104.094 61.4507 103.476 61.4507C102.526 61.4507 101.739 61.149 101.113 60.5455C100.488 59.942 100.175 59.2079 100.175 58.3431C100.175 57.7617 100.32 57.2226 100.611 56.7259C100.905 56.2254 101.308 55.8354 101.82 55.5557C102.331 55.276 102.903 55.1362 103.536 55.1362C103.934 55.1362 104.316 55.1969 104.684 55.3184C105.056 55.4398 105.371 55.598 105.628 55.7931C105.886 55.9881 106.105 56.2365 106.285 56.5382ZM112.323 59.3036L112.974 59.6458C112.761 60.0653 112.514 60.4038 112.234 60.6614C111.955 60.919 111.64 61.1159 111.291 61.252C110.941 61.3845 110.545 61.4507 110.104 61.4507C109.125 61.4507 108.36 61.1306 107.808 60.4903C107.256 59.8463 106.98 59.1196 106.98 58.31C106.98 57.5483 107.213 56.8694 107.681 56.2733C108.273 55.5152 109.066 55.1362 110.06 55.1362C111.083 55.1362 111.9 55.5244 112.51 56.3009C112.945 56.8491 113.165 57.5336 113.173 58.3542H107.774C107.789 59.0533 108.012 59.6274 108.442 60.0763C108.873 60.5216 109.405 60.7442 110.038 60.7442C110.343 60.7442 110.639 60.6908 110.926 60.5841C111.217 60.4774 111.463 60.3357 111.666 60.1591C111.868 59.9825 112.087 59.6973 112.323 59.3036ZM112.323 57.6863C112.22 57.2742 112.069 56.9448 111.87 56.6983C111.675 56.4517 111.416 56.253 111.092 56.1022C110.768 55.9513 110.428 55.8758 110.071 55.8758C109.482 55.8758 108.976 56.0654 108.553 56.4444C108.244 56.7204 108.01 57.1343 107.852 57.6863H112.323Z" fill="black"/>
<path fill-rule="evenodd" clip-rule="evenodd" d="M123.595 36.4791C121.917 36.33 120.578 35.0169 120.396 33.3424L120.388 33.2727L120.388 33.2727L120.388 33.2727V33.2727C120.239 34.9505 118.926 36.2895 117.252 36.4715L117.182 36.4791H120.388L120.388 36.4791H123.595ZM120.381 39.6158C120.199 37.9413 118.86 36.6282 117.182 36.4791H120.388V39.6855L120.381 39.6158ZM120.388 39.6855C120.537 38.0077 121.85 36.6687 123.525 36.4867L123.595 36.4791H120.388V39.6855Z" fill="black"/>
</svg>
