<svg width="200" height="337" viewBox="0 0 200 337" fill="none" xmlns="http://www.w3.org/2000/svg">
<mask id="path-1-inside-1_402_56" fill="white">
<path fill-rule="evenodd" clip-rule="evenodd" d="M100 0C44.7715 0 0 44.7715 0 100V114.133V197.632V336.005H200V197.632V114.133V100C200 44.7715 155.228 0 100 0Z"/>
</mask>
<path d="M0 336.005H-1V337.005H0V336.005ZM200 336.005V337.005H201V336.005H200ZM1 100C1 45.3238 45.3238 1 100 1V-1C44.2192 -1 -1 44.2193 -1 100H1ZM1 114.133V100H-1V114.133H1ZM1 197.632V114.133H-1V197.632H1ZM1 336.005V197.632H-1V336.005H1ZM200 335.005H0V337.005H200V335.005ZM199 197.632V336.005H201V197.632H199ZM199 114.133V197.632H201V114.133H199ZM199 100V114.133H201V100H199ZM100 1C154.676 1 199 45.3238 199 100H201C201 44.2192 155.781 -1 100 -1V1Z" fill="black" mask="url(#path-1-inside-1_402_56)"/>
</svg>
